<svg id="Layer_1" data-name="Layer 1" xmlns="http://www.w3.org/2000/svg" viewBox="0 0 24 24"><defs><style>.cls-1{fill:#3f3d56;}</style></defs><path class="cls-1" d="M21.78,17.6,17.6,14.82a1.22,1.22,0,0,0-1.63.26l-1.22,1.57a.54.54,0,0,1-.67.14l-.23-.13A14.15,14.15,0,0,1,10.2,13.8a14.15,14.15,0,0,1-2.86-3.65l-.13-.23a.51.51,0,0,1,.14-.67L8.91,8A1.22,1.22,0,0,0,9.18,6.4L6.39,2.22a1.21,1.21,0,0,0-1.63-.37L3,2.9A2.51,2.51,0,0,0,1.88,4.36c-.62,2.29-.15,6.25,5.68,12.08,4.64,4.64,8.09,5.88,10.46,5.88a5.91,5.91,0,0,0,1.62-.21A2.48,2.48,0,0,0,21.1,21l1-1.75A1.22,1.22,0,0,0,21.78,17.6Zm-.23,1.29-1,1.75a1.85,1.85,0,0,1-1.05.81c-2.12.58-5.82.1-11.41-5.5S2,6.66,2.55,4.54a1.78,1.78,0,0,1,.81-1L5.11,2.44a.54.54,0,0,1,.71.16L7.33,4.87,8.6,6.78a.52.52,0,0,1-.11.71L6.93,8.71a1.18,1.18,0,0,0-.32,1.54l.12.23a14.74,14.74,0,0,0,3,3.8,14.61,14.61,0,0,0,3.81,3l.22.12a1.21,1.21,0,0,0,1.55-.32l1.22-1.56a.53.53,0,0,1,.71-.12l4.17,2.79A.52.52,0,0,1,21.55,18.89Z"/></svg>