<svg id="Layer_1" data-name="Layer 1" xmlns="http://www.w3.org/2000/svg" viewBox="0 0 100.17 87.32"><defs><style>.cls-1,.cls-3{fill:none;stroke:#c19a6a;stroke-linecap:round;stroke-linejoin:round;}.cls-1{stroke-width:2px;}.cls-2{fill:#6c6c6c;}</style></defs><polyline class="cls-1" points="30.5 23.16 30.5 28.57 8.17 40.09"/><polyline class="cls-1" points="69.67 23.16 69.67 28.57 92.01 40.09"/><polyline class="cls-1" points="22.75 21.41 50.24 2.5 77.5 21.41"/><path class="cls-1" d="M89.93,43.2V80.72a2.1,2.1,0,0,1-2.1,2.1H12.61a2.1,2.1,0,0,1-2.1-2.1V43"/><rect class="cls-2" x="41.67" y="19.79" width="6.72" height="9.16"/><rect class="cls-2" x="51.87" y="19.79" width="6.72" height="9.16"/><rect class="cls-2" x="65.68" y="36.95" width="6.72" height="11.29"/><rect class="cls-2" x="51.87" y="36.95" width="6.72" height="11.29"/><rect class="cls-2" x="41.67" y="36.95" width="6.72" height="11.29"/><rect class="cls-2" x="27.87" y="36.95" width="6.72" height="11.29"/><rect class="cls-2" x="17.66" y="58.45" width="6.72" height="11.29"/><rect class="cls-2" x="27.87" y="58.21" width="6.72" height="11.29"/><rect class="cls-2" x="65.68" y="58.45" width="6.72" height="11.29"/><rect class="cls-2" x="76" y="58.45" width="6.72" height="11.29"/><polyline class="cls-3" points="41.66 77.64 41.66 56.3 58.59 56.3 58.59 77.64"/><rect class="cls-2" x="44.39" y="58.81" width="11.48" height="18.6"/></svg>