<svg id="Layer_1" data-name="Layer 1" xmlns="http://www.w3.org/2000/svg" viewBox="0 0 24 24"><defs><style>.cls-1,.cls-2{fill:none;stroke:#3f3d56;stroke-miterlimit:10;stroke-width:0.75px;}.cls-1{stroke-linecap:round;}</style></defs><path class="cls-1" d="M21.07,9.54V19.9a2,2,0,0,1-2,2H4.55a2,2,0,0,1-2-2V9.54"/><path class="cls-2" d="M22.1,11.94h0"/><path class="cls-1" d="M1.06,10.77,9.58,2.25a3.17,3.17,0,0,1,4.49,0l8.52,8.52"/><path class="cls-2" d="M14.57,21.87H9.08a.68.68,0,0,1-.68-.68V15.11A2.14,2.14,0,0,1,10.54,13h2.57a2.14,2.14,0,0,1,2.14,2.14v6.08A.68.68,0,0,1,14.57,21.87Z"/></svg>