<svg xmlns="http://www.w3.org/2000/svg" width="25.418" height="25.413" viewBox="0 0 25.418 25.413">
  <path id="Icon_awesome-instagram" data-name="Icon awesome-instagram" d="M12.707,8.429a6.515,6.515,0,1,0,6.515,6.515A6.505,6.505,0,0,0,12.707,8.429Zm0,10.751a4.236,4.236,0,1,1,4.236-4.236,4.244,4.244,0,0,1-4.236,4.236Zm8.3-11.018a1.52,1.52,0,1,1-1.52-1.52A1.516,1.516,0,0,1,21.008,8.162ZM25.324,9.7A7.521,7.521,0,0,0,23.271,4.38a7.57,7.57,0,0,0-5.325-2.053c-2.1-.119-8.387-.119-10.485,0A7.559,7.559,0,0,0,2.137,4.374,7.545,7.545,0,0,0,.084,9.7c-.119,2.1-.119,8.387,0,10.485a7.521,7.521,0,0,0,2.053,5.325,7.58,7.58,0,0,0,5.325,2.053c2.1.119,8.387.119,10.485,0a7.521,7.521,0,0,0,5.325-2.053,7.57,7.57,0,0,0,2.053-5.325c.119-2.1.119-8.381,0-10.479Zm-2.711,12.73A4.289,4.289,0,0,1,20.2,24.851c-1.673.663-5.642.51-7.491.51s-5.824.147-7.491-.51A4.289,4.289,0,0,1,2.8,22.435c-.663-1.673-.51-5.642-.51-7.491S2.142,9.12,2.8,7.453A4.289,4.289,0,0,1,5.216,5.038c1.673-.663,5.642-.51,7.491-.51s5.824-.147,7.491.51a4.289,4.289,0,0,1,2.416,2.416c.663,1.673.51,5.642.51,7.491S23.277,20.768,22.613,22.435Z" transform="translate(0.005 -2.238)" fill="#fff"/>
</svg>
