<svg xmlns="http://www.w3.org/2000/svg" width="28.418" height="23.081" viewBox="0 0 28.418 23.081">
  <path id="Icon_awesome-twitter" data-name="Icon awesome-twitter" d="M25.5,9.133c.018.252.018.5.018.757,0,7.7-5.86,16.571-16.571,16.571A16.459,16.459,0,0,1,0,23.847a12.049,12.049,0,0,0,1.406.072,11.664,11.664,0,0,0,7.231-2.488,5.835,5.835,0,0,1-5.446-4.039,7.345,7.345,0,0,0,1.1.09,6.16,6.16,0,0,0,1.533-.2,5.825,5.825,0,0,1-4.67-5.716V11.5a5.866,5.866,0,0,0,2.633.739,5.833,5.833,0,0,1-1.8-7.79,16.556,16.556,0,0,0,12.009,6.095,6.575,6.575,0,0,1-.144-1.334A5.83,5.83,0,0,1,23.928,5.22a11.467,11.467,0,0,0,3.7-1.406,5.809,5.809,0,0,1-2.561,3.21,11.676,11.676,0,0,0,3.354-.9A12.52,12.52,0,0,1,25.5,9.133Z" transform="translate(0 -3.381)" fill="#fff"/>
</svg>
