<svg height="512pt" viewBox="0 0 512 512" width="512pt" xmlns="http://www.w3.org/2000/svg"><path d="m494.933594 256h-284.859375l-17.066407-34.132812h71.527344c14.128906-.015626 25.582032-11.46875 25.597656-25.601563v-153.597656c-.015624-14.132813-11.46875-25.585938-25.597656-25.601563h-221.867187c-14.132813.015625-25.585938 11.46875-25.601563 25.601563v153.597656c.015625 14.132813 11.46875 25.585937 25.601563 25.601563h71.523437l-17.066406 34.132812h-80.058594c-9.421875.011719-17.0546872 7.644531-17.066406 17.066406v17.066406c.0117188 9.421876 7.644531 17.054688 17.066406 17.066407h8.535156v196.265625c0 4.714844 3.820313 8.535156 8.53125 8.535156 4.714844 0 8.535157-3.820312 8.535157-8.535156v-196.265625h315.730469v187.734375c.011718 9.421875 7.648437 17.054687 17.066406 17.066406h119.46875c9.421875-.011719 17.054687-7.644531 17.066406-17.066406v-221.867188c-.011719-9.421875-7.644531-17.054687-17.066406-17.066406zm-59.734375 153.601562c-4.710938 0-8.53125 3.820313-8.53125 8.53125v8.535157h-51.203125v-51.203125h119.46875v51.203125h-51.199219v-8.535157c0-4.710937-3.820313-8.53125-8.535156-8.53125zm-392.53125-375.46875h221.867187c4.710938.003907 8.527344 3.824219 8.53125 8.535157v128h-238.933594v-128c.003907-4.710938 3.824219-8.53125 8.535157-8.535157zm-8.535157 162.132813v-8.53125h238.933594v8.53125c-.003906 4.710937-3.820312 8.53125-8.53125 8.535156h-221.867187c-4.710938-.003906-8.53125-3.824219-8.535157-8.535156zm99.140626 25.601563h40.652343l17.066407 34.132812h-74.785157zm-116.207032 51.199218h477.867188v17.066406h-477.867188zm477.867188 34.132813v51.199219h-51.199219v-8.53125c0-4.714844-3.820313-8.535157-8.535156-8.535157-4.710938 0-8.53125 3.820313-8.53125 8.535157v8.53125h-51.203125v-51.199219zm-51.199219 187.734375v-8.535156c0-4.710938-3.820313-8.53125-8.535156-8.53125-4.710938 0-8.53125 3.820312-8.53125 8.53125v8.535156h-51.203125v-51.199219h119.46875v51.199219zm0 0"/><path d="m59.734375 85.332031c2.261719.003907 4.433594-.894531 6.03125-2.5l17.066406-17.066406c2.21875-2.140625 3.109375-5.3125 2.328125-8.296875s-3.109375-5.316406-6.09375-6.09375c-2.984375-.78125-6.15625.105469-8.300781 2.324219l-17.066406 17.066406c-2.4375 2.441406-3.167969 6.113281-1.847657 9.300781 1.320313 3.1875 4.429688 5.265625 7.882813 5.265625zm0 0"/><path d="m59.734375 136.535156c2.261719 0 4.433594-.898437 6.03125-2.503906l68.265625-68.265625c2.21875-2.140625 3.109375-5.3125 2.328125-8.296875s-3.109375-5.316406-6.09375-6.09375c-2.984375-.78125-6.15625.105469-8.296875 2.324219l-68.269531 68.269531c-2.4375 2.4375-3.167969 6.109375-1.847657 9.296875 1.320313 3.1875 4.429688 5.265625 7.882813 5.269531zm0 0"/><path d="m494.933594 102.398438h-59.734375v-85.332032c-.011719-9.421875-7.644531-17.0546872-17.066407-17.066406h-17.066406c-3.003906.015625-5.949218.835938-8.53125 2.375-2.582031-1.539062-5.53125-2.359375-8.535156-2.375h-17.066406c-9.421875.0117188-17.054688 7.644531-17.066406 17.066406v85.332032h-8.535157c-9.417969.011718-17.054687 7.648437-17.066406 17.066406v17.070312c.011719 9.417969 7.648437 17.054688 17.066406 17.066406h153.601563c9.421875-.011718 17.054687-7.648437 17.066406-17.066406v-17.070312c-.011719-9.417969-7.644531-17.054688-17.066406-17.066406zm-76.800782-85.332032v85.332032h-17.066406v-85.332032zm-34.132812 0v17.066406h-17.066406v-17.066406zm-17.066406 34.132813h17.066406v51.199219h-17.066406zm-25.601563 85.335937v-17.070312h153.601563l.007812 17.070312zm0 0"/></svg>