<svg id="Layer_1" data-name="Layer 1" xmlns="http://www.w3.org/2000/svg" viewBox="0 0 100.17 87.32"><defs><style>.cls-1,.cls-3{fill:none;stroke-linecap:round;stroke-linejoin:round;stroke-width:2px;}.cls-1{stroke:#6d6d6c;}.cls-2{fill:#c19a6a;}.cls-3{stroke:#c19a6a;}.cls-4{fill:#6c6c6c;}.cls-5{fill:#fff;}</style></defs><line class="cls-1" x1="43.98" y1="62.87" x2="36.3" y2="85.5"/><line class="cls-1" x1="59.96" y1="62.87" x2="67.44" y2="86.63"/><rect class="cls-2" x="7.04" y="38.57" width="89.3" height="5.76"/><polyline class="cls-3" points="13.15 44.33 7.04 83.09 20.53 44.33"/><polyline class="cls-3" points="82.86 44.33 95.32 83.09 89.09 44.33"/><path class="cls-3" d="M75,38.29s6.81-6.79,14.9,0"/><polyline class="cls-3" points="82.86 34.99 82.86 27.89 89.09 21.41 69.23 3.67 65.89 8.77"/><path class="cls-4" d="M41.39,27.12h20.1l5.85,23.15c3.3,13.07-17.88,15.85-25.75,11.41-2.55-1.45-7.12-4.55-6.31-8.07Z"/><path class="cls-4" d="M53.9,10.52a14.08,14.08,0,0,0,3.49,3.69,52,52,0,0,1,4,3.75,32.48,32.48,0,0,0,4,3.77c.24.18,3.22-3.71,3.49-4.07A7.55,7.55,0,0,0,63.75,5.5,8.32,8.32,0,0,0,58,7C57.6,7.27,53.77,10.3,53.9,10.52Z"/><path class="cls-5" d="M56.47,11a10,10,0,0,0,2.44,2.74c1,.86,1.89,1.83,2.78,2.79a24.06,24.06,0,0,0,2.81,2.81c.17.13,2.25-2.76,2.44-3a5.68,5.68,0,0,0-3.58-9,5.61,5.61,0,0,0-4,1.14A21.7,21.7,0,0,0,56.47,11Z"/></svg>