<svg id="Layer_1" data-name="Layer 1" xmlns="http://www.w3.org/2000/svg" viewBox="0 0 24 24"><defs><style>.cls-1{fill:#3f3d56;}</style></defs><path class="cls-1" d="M14.55,3.5H8.41a.3.3,0,1,0,0,.6h6.14a.3.3,0,1,0,0-.6Z"/><path class="cls-1" d="M14.55,5.24H8.41a.3.3,0,1,0,0,.59h6.14a.3.3,0,1,0,0-.59Z"/><path class="cls-1" d="M20.22,11.73H18.46V10.9a2,2,0,0,0-2-2H13.16a2,2,0,0,0-2,2v.83H9.43a1.6,1.6,0,0,0-1.6,1.6v6.76a1.6,1.6,0,0,0,1.6,1.6H20.22a1.6,1.6,0,0,0,1.59-1.6V18.81a.3.3,0,1,0-.59,0v1.28a1,1,0,0,1-1,1H9.43a1,1,0,0,1-1-1V15.9a2.67,2.67,0,0,0,2,1v.45a1.08,1.08,0,0,0,2.16,0v-.45H17.1v.45a1.08,1.08,0,0,0,2.16,0v-.45a2.67,2.67,0,0,0,2-1v1.53a.3.3,0,0,0,.59,0v-4.1a1.6,1.6,0,0,0-1.59-1.6Zm-8.44-.83a1.38,1.38,0,0,1,1.38-1.38h3.33a1.38,1.38,0,0,1,1.38,1.38v.83h-.62V10.9a.76.76,0,0,0-.76-.76H13.16a.77.77,0,0,0-.77.76v.83h-.61Zm1.2.83V10.9a.18.18,0,0,1,.18-.17h3.33a.18.18,0,0,1,.17.17v.83Zm-1,5.6a.49.49,0,0,1-1,0v-1a.49.49,0,1,1,1,0Zm6.72,0a.49.49,0,1,1-1,0v-.74h0v-.3a.49.49,0,1,1,1,0Zm.59-1h0a1.08,1.08,0,1,0-2.16,0H12.54a1.08,1.08,0,1,0-2.16,0h0a2.07,2.07,0,0,1-2-2.06v-.9a1,1,0,0,1,1-1H20.22a1,1,0,0,1,1,1v.9a2.07,2.07,0,0,1-2,2.06Z"/><path class="cls-1" d="M7.45,21.1H3.08a.87.87,0,0,1-.87-.87V6a1.11,1.11,0,0,1,0-.19H4.92a1,1,0,0,0,1-1V2.12a.58.58,0,0,1,.19,0h10A.87.87,0,0,1,17,3V8a.3.3,0,1,0,.59,0V3A1.47,1.47,0,0,0,16.16,1.5h-10a1.5,1.5,0,0,0-1,.43L2.05,5a1.44,1.44,0,0,0-.43,1V20.23a1.46,1.46,0,0,0,1.46,1.46H7.45a.3.3,0,1,0,0-.59ZM5.35,2.51v2.3a.43.43,0,0,1-.43.43H2.63Z"/></svg>