<svg id="Layer_1" data-name="Layer 1" xmlns="http://www.w3.org/2000/svg" viewBox="0 0 24 24"><defs><style>.cls-1{fill:#3f3d56;}</style></defs><path class="cls-1" d="M14.4,13.31H14a.35.35,0,0,1-.32-.22c0-.11-.08-.22-.13-.33a.34.34,0,0,1,.07-.38l.27-.27a1,1,0,0,0,0-1.45l-1-1a1,1,0,0,0-1.46,0l-.26.27a.36.36,0,0,1-.39.07l-.32-.14a.33.33,0,0,1-.22-.31V9.2a1,1,0,0,0-1-1H7.89a1,1,0,0,0-1,1v.38a.33.33,0,0,1-.22.31L6.32,10A.34.34,0,0,1,5.94,10l-.27-.27a1,1,0,0,0-1.46,0l-1,1a1,1,0,0,0,0,1.45l.26.27a.32.32,0,0,1,.07.38c-.05.11-.09.22-.13.33a.35.35,0,0,1-.32.22H2.75a1,1,0,0,0-1,1v1.37a1,1,0,0,0,1,1h.38a.34.34,0,0,1,.32.23c0,.11.08.21.13.32a.34.34,0,0,1-.07.38l-.27.27a1,1,0,0,0,0,1.45l1,1a1,1,0,0,0,1.45,0l.27-.27A.34.34,0,0,1,6.31,20l.33.14a.35.35,0,0,1,.22.32v.38a1,1,0,0,0,1,1H9.26a1,1,0,0,0,1-1v-.38a.35.35,0,0,1,.22-.32l.32-.13a.33.33,0,0,1,.38.06l.27.27a1,1,0,0,0,1.45,0l1-1a1,1,0,0,0,0-1.45l-.27-.27a.33.33,0,0,1-.06-.38c0-.11.09-.21.13-.32a.34.34,0,0,1,.32-.23h.38a1,1,0,0,0,1-1V14.34A1,1,0,0,0,14.4,13.31Zm.34,2.4a.34.34,0,0,1-.34.34H14a1,1,0,0,0-1,.66,1.78,1.78,0,0,1-.12.29,1,1,0,0,0,.21,1.15l.27.26a.36.36,0,0,1,0,.49h0l-1,1a.34.34,0,0,1-.48,0l-.27-.27a1,1,0,0,0-1.15-.21l-.29.12a1,1,0,0,0-.66,1v.38a.34.34,0,0,1-.34.34H7.89a.34.34,0,0,1-.34-.34v-.38a1,1,0,0,0-.67-1l-.28-.12a1,1,0,0,0-1.15.21l-.27.26a.34.34,0,0,1-.48,0h0l-1-1a.36.36,0,0,1,0-.49L4,18.15A1,1,0,0,0,4.2,17c0-.1-.08-.19-.11-.29a1,1,0,0,0-1-.66H2.75a.34.34,0,0,1-.34-.34V14.34A.35.35,0,0,1,2.75,14h.38a1,1,0,0,0,1-.66c0-.09.07-.19.11-.28A1,1,0,0,0,4,11.9l-.27-.27a.34.34,0,0,1,0-.48h0l1-1a.33.33,0,0,1,.48,0l.27.27a1,1,0,0,0,1.15.2l.28-.12a1,1,0,0,0,.67-.95V9.2a.34.34,0,0,1,.34-.34H9.26a.34.34,0,0,1,.34.34v.38a1,1,0,0,0,.66.95l.29.12a1,1,0,0,0,1.15-.2l.27-.27a.34.34,0,0,1,.48,0l1,1a.34.34,0,0,1,0,.48l-.27.27a1,1,0,0,0-.21,1.15,1.69,1.69,0,0,1,.12.28A1,1,0,0,0,14,14h.38a.35.35,0,0,1,.34.35v1.37Z"/><path class="cls-1" d="M11.65,14.88a1.94,1.94,0,0,0,0-.24,2,2,0,0,0,0-.26c0-.06,0-.11,0-.17a1.72,1.72,0,0,0-.07-.21s0-.09-.05-.14a2.3,2.3,0,0,0-.15-.32v0a3.58,3.58,0,0,0-.31-.45l0,0-.15-.16-.08-.08-.11-.09-.12-.11-.06,0a3,3,0,0,0-1.84-.61H8.14L7.8,12a3.08,3.08,0,0,0,0,6h0l.36.07.24,0h.16l.3,0h0l.25,0,.1,0,.18,0,.14-.05.15-.05.13-.06.17-.09h0a3.92,3.92,0,0,0,.88-.63,1.45,1.45,0,0,0,.19-.23,3.63,3.63,0,0,0,.51-1.4,1.5,1.5,0,0,0,0-.2,1.21,1.21,0,0,0,0-.19s0,0,0-.06S11.65,14.93,11.65,14.88Zm-.68.23a.19.19,0,0,1,0,.08,1,1,0,0,1,0,.25,2.4,2.4,0,0,1-1.2,1.68l-.13.06,0,0a2.49,2.49,0,0,1-.62.19h0l-.12,0H8.54l-.24,0H8.25l-.28,0A2.4,2.4,0,0,1,8,12.7H8a2.47,2.47,0,0,1,.6-.08l.3,0,.07,0,.22,0,.07,0a2.47,2.47,0,0,1,.53.22l.08.05.15.1.09.07.19.17.07.07a1.34,1.34,0,0,1,.11.14l.08.09.1.16,0,.08.12.25,0,.11a.6.6,0,0,1,.06.19l0,.1a2.36,2.36,0,0,1,0,.28v.07A1.93,1.93,0,0,1,11,15.11Z"/><path class="cls-1" d="M21.25,8.51H20.17a.35.35,0,0,1-.32-.22,6.26,6.26,0,0,0-.38-.93A.33.33,0,0,1,19.53,7l.77-.76a1,1,0,0,0,0-1.45L18.84,3.3a1,1,0,0,0-1.45,0l-.77.76a.32.32,0,0,1-.38.07,7.61,7.61,0,0,0-.93-.39.32.32,0,0,1-.23-.32V2.35a1,1,0,0,0-1-1H12a1,1,0,0,0-1,1V3.42a.33.33,0,0,1-.22.32,7.61,7.61,0,0,0-.93.39.34.34,0,0,1-.39-.07L8.67,3.3a1,1,0,0,0-1.46,0L5.76,4.75a1,1,0,0,0,0,1.46L6.88,7.33a.36.36,0,0,0,.49,0,.34.34,0,0,0,0-.48L6.25,5.72a.33.33,0,0,1,0-.48L7.7,3.79a.33.33,0,0,1,.48,0L9,4.55a1,1,0,0,0,1.18.19A7.81,7.81,0,0,1,11,4.39a1,1,0,0,0,.69-1V2.35A.35.35,0,0,1,12,2h2.06a.35.35,0,0,1,.34.35V3.42a1,1,0,0,0,.69,1,7.81,7.81,0,0,1,.84.35,1,1,0,0,0,1.18-.19l.76-.76a.34.34,0,0,1,.49,0l1.45,1.45a.34.34,0,0,1,0,.48l-.76.77a1,1,0,0,0-.2,1.18,5.14,5.14,0,0,1,.35.84,1,1,0,0,0,1,.69h1.08a.34.34,0,0,1,.34.34V11.6a.34.34,0,0,1-.34.34H20.17a1,1,0,0,0-1,.69,5.14,5.14,0,0,1-.35.84,1,1,0,0,0,.2,1.18l.76.76a.36.36,0,0,1,0,.49l-1.45,1.45a.36.36,0,0,1-.49,0l-1.12-1.12a.34.34,0,0,0-.5.47h0l1.13,1.13a1,1,0,0,0,1.45,0l1.45-1.46a1,1,0,0,0,0-1.45l-.76-.76a.34.34,0,0,1-.06-.39,6.26,6.26,0,0,0,.38-.93.34.34,0,0,1,.32-.23h1.08a1,1,0,0,0,1-1V9.54A1,1,0,0,0,21.25,8.51Z"/><path class="cls-1" d="M16.18,7.42a4.45,4.45,0,0,0-6.3,0,.34.34,0,0,0,.48.48,3.77,3.77,0,0,1,5.37,5.3l0,0a.35.35,0,0,0,.48.5h0A4.47,4.47,0,0,0,16.18,7.42Z"/></svg>