<svg xmlns="http://www.w3.org/2000/svg" width="809" height="397.609" viewBox="0 0 809 397.609">
  <g id="Group_41" data-name="Group 41" transform="translate(-488 -640)">
    <circle id="Ellipse_45" data-name="Ellipse 45" cx="30.5" cy="30.5" r="30.5" transform="translate(559 646)" fill="#efd6b9"/>
    <circle id="Ellipse_46" data-name="Ellipse 46" cx="30.5" cy="30.5" r="30.5" transform="translate(848 646)" fill="#efd6b9"/>
    <circle id="Ellipse_47" data-name="Ellipse 47" cx="30.5" cy="30.5" r="30.5" transform="translate(1150 646)" fill="#efd6b9"/>
    <circle id="Ellipse_48" data-name="Ellipse 48" cx="30.5" cy="30.5" r="30.5" transform="translate(1173 907)" fill="#efd6b9"/>
    <circle id="Ellipse_49" data-name="Ellipse 49" cx="30.5" cy="30.5" r="30.5" transform="translate(862 907)" fill="#efd6b9"/>
    <circle id="Ellipse_50" data-name="Ellipse 50" cx="30.5" cy="30.5" r="30.5" transform="translate(559 907)" fill="#efd6b9"/>
    <g id="Group_32" data-name="Group 32" transform="translate(453 742)">
      <g id="Group_18" data-name="Group 18" transform="translate(35 11)">
        <text id="Call_our_Project_Manager." data-name="Call our Project Manager." transform="translate(0 18)" fill="#3a3e47" font-size="17" font-family="SegoeUI-Semibold, Segoe UI" font-weight="600"><tspan x="0" y="0">Call our Project Manager.</tspan></text>
      </g>
    </g>
    <g id="Group_34" data-name="Group 34" transform="translate(748.837 748)">
      <g id="Group_33" data-name="Group 33" transform="translate(0 0)">
        <g id="Group_19" data-name="Group 19" transform="translate(14 5)">
          <text id="Discuss_your_needs_and_arrive_at_a_clearer_picture._" data-name="Discuss your needs
and arrive at a clearer picture. " transform="translate(117.163 18)" fill="#3a3e47" font-size="17" font-family="SegoeUI-Semibold, Segoe UI" font-weight="600"><tspan x="-73.159" y="0">Discuss your needs</tspan><tspan x="-117.103" y="22">and arrive at a clearer picture. </tspan></text>
        </g>
      </g>
    </g>
    <g id="Group_35" data-name="Group 35" transform="translate(1044.681 742)">
      <g id="Group_20" data-name="Group 20" transform="translate(8 11)">
        <text id="Site_visit_by_our_team_members." data-name="Site visit by our team members." transform="translate(0.319 18)" fill="#3a3e47" font-size="17" font-family="SegoeUI-Semibold, Segoe UI" font-weight="600"><tspan x="0" y="0">Site visit by our team members.</tspan></text>
      </g>
    </g>
    <g id="telephone" transform="translate(559.999 640.021)">
      <path id="Path_371" data-name="Path 371" d="M229.917,387.752a1.229,1.229,0,1,0,1.738,0A1.229,1.229,0,0,0,229.917,387.752Zm0,0" transform="translate(-201.745 -340.51)"/>
      <path id="Path_372" data-name="Path 372" d="M59.269,45.163l-9.2-7.818a1.243,1.243,0,0,0-.134-.1,6.029,6.029,0,0,0-7.539.826l-5.018,5.012a1.21,1.21,0,0,1-1.321.263A32.88,32.88,0,0,1,22.218,32.872a24.368,24.368,0,0,1-3.773-6.7,1.2,1.2,0,0,0-.073-.25,1.2,1.2,0,0,1,.263-1.318l5.017-5.014a6.012,6.012,0,0,0,.827-7.531c-.012-.019-.025-.038-.038-.057L17.795,2.774a6.065,6.065,0,0,0-9.38-1l-1,1,0,0L3.821,6.363C-.457,10.637-1.157,17.059,1.8,24.936c2.531,6.747,7.6,14.132,14.264,20.792C22.887,52.546,30.479,57.7,37.439,60.241c6.889,2.514,14.217,2.824,19.4-2.358L60.225,54.5a6.051,6.051,0,0,0-.957-9.341ZM48.563,39.247l9.2,7.811a1.193,1.193,0,0,0,.134.1,3.631,3.631,0,0,1,.618,5.634l-.251.251L42.576,41.313l1.53-1.528a3.616,3.616,0,0,1,4.457-.537ZM15.77,4.1c.012.019.025.039.038.057l6.644,9.223a3.607,3.607,0,0,1-.513,4.491l-1.483,1.482L9.845,3.77l.285-.284a3.639,3.639,0,0,1,5.64.618Zm22.5,53.862c-6.635-2.422-13.914-7.376-20.495-13.95-6.429-6.421-11.3-13.5-13.709-19.929-1.81-4.827-3.025-11.522,1.468-16.01L8.1,5.513,18.711,21.1l-1.789,1.788a3.616,3.616,0,0,0-.83,3.855,26.886,26.886,0,0,0,3.919,7.224A35.552,35.552,0,0,0,35.126,45.585a3.629,3.629,0,0,0,3.962-.788l1.756-1.755,15.684,11.73-1.4,1.4C50.311,60.982,43.3,59.8,38.27,57.966Zm0,0" transform="translate(0)"/>
      <path id="Path_373" data-name="Path 373" d="M108.7,266.231c-1.3-1.139-3.545-3.1-4.728-4.314a80.823,80.823,0,0,1-7.754-9.205,1.229,1.229,0,1,0-2.021,1.4,83.267,83.267,0,0,0,8.012,9.519c1.249,1.285,3.514,3.261,4.869,4.449a1.229,1.229,0,1,0,1.621-1.849Zm0,0" transform="translate(-82.639 -221.807)"/>
    </g>
    <g id="chat" transform="translate(840.721 606.529)">
      <path id="Path_356" data-name="Path 356" d="M123.91,230.678c-3.438,0-6.113,1.7-6.113,6.259v9.11c0,4.291,2.292,6.025,5.378,6.26v2.321a.716.716,0,0,0,.764.735.708.708,0,0,0,.735-.735v-2.321c3.056-.235,5.348-2,5.348-6.26v-9.11C130.022,232.382,127.348,230.678,123.91,230.678Zm4.173,15.369c0,2.763-1.264,4.144-3.409,4.408v-2.175a.683.683,0,0,0-.735-.705.693.693,0,0,0-.764.705v2.175c-2.175-.235-3.438-1.646-3.438-4.408v-9.11c0-3.056,1.558-4.467,4.173-4.467s4.173,1.411,4.173,4.467Z" transform="translate(-97.118 -169.795)"/>
      <path id="Path_357" data-name="Path 357" d="M103.624,205.552a.834.834,0,0,0-1.091-.449,16.736,16.736,0,0,0-1.661.8.834.834,0,1,0,.809,1.46,15.062,15.062,0,0,1,1.495-.723.834.834,0,0,0,.449-1.092Z" transform="translate(-82.175 -147.719)"/>
      <path id="Path_358" data-name="Path 358" d="M47.481,222.9a16.687,16.687,0,0,0-6.027,12.856.834.834,0,0,0,1.668,0,15.016,15.016,0,0,1,5.426-11.574.834.834,0,1,0-1.067-1.282Z" transform="translate(-31.387 -162.935)"/>
      <path id="Path_359" data-name="Path 359" d="M52.987,33.471A21.8,21.8,0,0,0,31.529,51.454,21.78,21.78,0,0,0,9.871,86.438L6.58,94.175a.834.834,0,0,0,.911,1.148l11.95-2.09a21.768,21.768,0,0,0,28.808-16.7,21.733,21.733,0,0,0,12.089-.766l11.95,2.091a.834.834,0,0,0,.911-1.148l-3.29-7.737a21.575,21.575,0,0,0,4.871-13.711A21.816,21.816,0,0,0,52.987,33.471Zm18.747,29.12a20.068,20.068,0,0,1-3.429,5.7.834.834,0,0,0-.133.867l2.889,6.793L60.406,74.086a.836.836,0,0,0-.434.039,20.094,20.094,0,0,1-11.5.751q.1-1.061.106-2.15a21.7,21.7,0,0,0-1.1-6.839.576.576,0,0,0,.335-.4l1.285-4.3h7.74l1.285,4.3a.687.687,0,0,0,.7.475c.5,0,1.118-.363,1.118-.81,0-.056-.028-.112-.028-.168L54.106,46.015a1.117,1.117,0,0,0-1.118-.643,1.063,1.063,0,0,0-1.09.643L46.521,63.483a21.84,21.84,0,0,0-2.631-4.249.831.831,0,0,0-1.239-.066h0a.834.834,0,0,0-.062,1.109A20.107,20.107,0,0,1,19.807,91.59a.838.838,0,0,0-.433-.039L8.716,93.415,11.6,86.623a.83.83,0,0,0-.129-.862A19.922,19.922,0,0,1,6.668,72.727,20.112,20.112,0,0,1,38.749,56.553a.834.834,0,1,0,.992-1.341,21.744,21.744,0,0,0-6.594-3.33A20.126,20.126,0,1,1,71.735,62.591ZM49.578,59.6l3.409-11.261L56.368,59.6Z"/>
    </g>
    <g id="Group_40" data-name="Group 40" transform="translate(-490 291)">
      <g id="Group_36" data-name="Group 36" transform="translate(953.529 711)">
        <g id="Group_21" data-name="Group 21" transform="translate(55 12)">
          <text id="Quotation_Approval." data-name="Quotation Approval." transform="translate(0.471 18)" fill="#3a3e47" font-size="17" font-family="SegoeUI-Semibold, Segoe UI" font-weight="600"><tspan x="0" y="0">Quotation Approval.</tspan></text>
        </g>
      </g>
      <g id="Group_37" data-name="Group 37" transform="translate(1249.366 711)">
        <g id="Group_22" data-name="Group 22" transform="translate(68 10)">
          <text id="Project_initiation." data-name="Project initiation." transform="translate(-0.366 18)" fill="#3a3e47" font-size="17" font-family="SegoeUI-Semibold, Segoe UI" font-weight="600"><tspan x="0" y="0">Project initiation.</tspan></text>
        </g>
      </g>
      <g id="Group_38" data-name="Group 38" transform="translate(1541.5 711)">
        <g id="Group_23" data-name="Group 23" transform="translate(100.5 8.609)">
          <text id="Completion." transform="translate(0 22)" fill="#3a3e47" font-size="20" font-family="SegoeUI-Semibold, Segoe UI" font-weight="600"><tspan x="0" y="0">Completion.</tspan></text>
        </g>
      </g>
      <g id="confirm" transform="translate(1666 607)">
        <circle id="Ellipse_43" data-name="Ellipse 43" cx="1" cy="1" r="1" transform="translate(13.052 33)"/>
        <circle id="Ellipse_44" data-name="Ellipse 44" cx="1" cy="1" r="1" transform="translate(21.086 33)"/>
        <path id="Path_360" data-name="Path 360" d="M19,41H15v2h4a4,4,0,0,0,4-4H21A2,2,0,0,1,19,41Z" transform="translate(0.067 0)"/>
        <path id="Path_361" data-name="Path 361" d="M63,47.669l-1.492-1.338L58.827,49.3a8,8,0,0,0-1.532-1.184l3.744-7.456a2.005,2.005,0,0,0,.212-.894V18a5.015,5.015,0,0,0-4.017-4.9V3a2.006,2.006,0,0,0-2.008-2H21.083a2.006,2.006,0,0,0-2.008,2V17H14.054a9.036,9.036,0,0,0-8.981,8H4.012A3.01,3.01,0,0,0,1,28v1a2.006,2.006,0,0,0,2.008,2H5.03a10.5,10.5,0,0,0,.76,3.661A3.952,3.952,0,0,0,5.017,37a4.012,4.012,0,0,0,4.017,4h.08a7.02,7.02,0,0,0,4.381,5.51l-.195.583A14.183,14.183,0,0,0,1,61.042V63H35.142V61.042a14.185,14.185,0,0,0-12.3-13.95l-.195-.583A7.017,7.017,0,0,0,27.028,41h.08a4.006,4.006,0,0,0,3.458-2H47.191v.764a2.009,2.009,0,0,0,.212.9l3.375,6.723A8,8,0,1,0,61.25,55a7.953,7.953,0,0,0-1.159-4.112ZM49.2,23H59.241v2H49.2Zm6.025,16V27h4.017V39ZM53.216,27V39H49.2V27Zm5.4,14-2.008,4H51.83l-2.008-4Zm-3.013,6-.832,1.657a.644.644,0,0,1-1.11,0L52.833,47Zm3.634-29v3H49.2V18a3.01,3.01,0,0,1,3.012-3h4.017A3.01,3.01,0,0,1,59.241,18ZM39.158,5V9H37.15V5H35.142V9H33.133V3H43.175V9H41.166V5Zm-25.1,14h8.033a7.024,7.024,0,0,1,7.029,7v3H21.083V28a3.01,3.01,0,0,0-3.012-3H7.1A7.031,7.031,0,0,1,14.054,19ZM28.7,33.334a3.991,3.991,0,0,0-1.6-.334V31h2A8.51,8.51,0,0,1,28.7,33.334ZM3.008,28a1,1,0,0,1,1-1H18.071a1,1,0,0,1,1,1v1H3.008Zm6.025,3v2a3.991,3.991,0,0,0-1.6.334A8.51,8.51,0,0,1,7.038,31ZM7.025,37a2.006,2.006,0,0,1,2.008-2v4A2.006,2.006,0,0,1,7.025,37ZM22.264,49.03q.3.031.585.077l-.463,2.305-2.23-1.332Zm-8.387,0,2.108,1.049-2.23,1.332-.463-2.305C13.486,49.078,13.681,49.051,13.877,49.03ZM33.133,61H29.117V57H27.108v4H9.033V57H7.025v4H3.008A12.175,12.175,0,0,1,11.34,49.583l1.005,5.005,5.726-3.422L23.8,54.588,24.8,49.583A12.175,12.175,0,0,1,33.133,61ZM20.859,47.493l-2.789,1.389-2.789-1.389.176-.524c.2.018.4.031.6.031h4.017c.2,0,.406-.013.606-.031ZM20.079,45H16.062a5.016,5.016,0,0,1-5.021-5V31H25.1v9A5.016,5.016,0,0,1,20.079,45Zm7.029-6V35a2,2,0,1,1,0,4Zm4.017-2a3.952,3.952,0,0,0-.773-2.339A10.492,10.492,0,0,0,31.112,31h.013V26a9.029,9.029,0,0,0-9.037-9h-1V3H31.125V9a2.006,2.006,0,0,0,2.008,2H43.175a2.006,2.006,0,0,0,2.008-2V3H55.225V13H52.212a5.016,5.016,0,0,0-5.021,5v7H43.175v2h4.017v2H37.15v2H47.191v2H37.15v2H47.191v2ZM59.241,55A6.025,6.025,0,1,1,51.7,49.216l.17.338a2.609,2.609,0,0,0,4.482.32,6.022,6.022,0,0,1,1.135.908l-4.307,4.766-2.264-2.255-1.42,1.414,3.761,3.745,5.419-6A5.974,5.974,0,0,1,59.241,55Z"/>
        <path id="Path_362" data-name="Path 362" d="M37,25h4v2H37Z" transform="translate(0.16 0)"/>
        <path id="Path_363" data-name="Path 363" d="M43,43h2v2H43Z" transform="translate(0.181 0)"/>
        <path id="Path_364" data-name="Path 364" d="M39,43h2v2H39Z" transform="translate(0.163 0)"/>
        <path id="Path_365" data-name="Path 365" d="M35,43h2v2H35Z" transform="translate(0.146 0)"/>
      </g>
      <g id="project" transform="translate(1356 608)">
        <path id="Path_366" data-name="Path 366" d="M61.092,6.017h-28.3V.908A.908.908,0,0,0,31.88,0H26.213a.908.908,0,0,0-.908.908V6.017H14.191a.908.908,0,0,0-.908.908v7.808a6.913,6.913,0,0,0-1.646,1.223V13.287c0-1.647-1.638-3-4.074-3.447V7.869a.908.908,0,0,0-.908-.908,6.952,6.952,0,0,0-4.485,1.7A6.2,6.2,0,0,0,0,13.4V17.2a.909.909,0,0,0,1.816,0V13.4a4.716,4.716,0,0,1,3.93-4.545V43.693A6.945,6.945,0,0,0,1.82,45.446c0-1.237,0-23.416,0-23.416A.909.909,0,0,0,0,22.03V50.24a.905.905,0,0,0,.013.149c.089,2.664,2.554,4.655,5.805,4.655a6.95,6.95,0,0,0,4.02-1.186V57.2c0,3.069,3.07,4.8,5.819,4.8,2.918,0,5.818-1.644,5.818-4.8l0-12.841H47.338L28.492,60.4a.915.915,0,0,0,.589,1.6H56.432a.908.908,0,0,0,.908-.908V56.686a.909.909,0,0,0-1.816,0v3.5H31.548L55.524,39.771v11.9a.909.909,0,0,0,1.816,0V44.355h3.752A.908.908,0,0,0,62,43.447V6.926A.908.908,0,0,0,61.092,6.017Zm-.908,1.816V29.862H38.913V7.834ZM30.971,1.816V25.06h-3.85V22.739h.659a.909.909,0,0,0,0-1.816h-.659v-2.38h1.507a.909.909,0,0,0,0-1.816H27.121v-2.38h.659a.908.908,0,1,0,0-1.816h-.659V10.15h1.507a.909.909,0,0,0,0-1.816H27.121V5.954h.659a.909.909,0,0,0,0-1.816h-.659V1.816ZM14.345,16.2a4.785,4.785,0,0,1,1.234-.39l.006,34.839A6.935,6.935,0,0,0,11.658,52.4c0-1.22,0-2.164,0-2.19l0-29.858a4.7,4.7,0,0,1,2.7-4.155Zm5.314,38.345-.093-.052a8.233,8.233,0,0,0-3.837-.9V52.463a5.31,5.31,0,0,1,.735-.055A.908.908,0,0,0,17.4,51.5L17.4,18.659c1.2.3,2.258.908,2.258,1.584ZM9.82,13.287v34.29a8.086,8.086,0,0,0-3.93-.941V45.507a5.262,5.262,0,0,1,.735-.055.908.908,0,0,0,.937-.908V11.7c1.383.331,2.258,1.018,2.258,1.59Zm0,37.383c0,1.386-1.833,2.558-4,2.558-2.276,0-3.993-1.284-3.993-2.988a4.4,4.4,0,0,1,2.249-4.184v1.527a.908.908,0,0,0,.993.9,6.69,6.69,0,0,1,3.786.642A1.537,1.537,0,0,1,9.82,50.67Zm5.837,9.513h0c-2.276,0-3.992-1.284-3.993-2.987a4.4,4.4,0,0,1,2.248-4.184V54.54a.908.908,0,0,0,.993.9c1.541-.145,4.827.1,4.753,2.182,0,1.386-1.832,2.558-4,2.558ZM21.47,20.242c0-1.635-1.644-3-4.075-3.446V14.824a.908.908,0,0,0-.908-.908,6.577,6.577,0,0,0-1.387.152V7.834H25.305V25.968a.908.908,0,0,0,.908.908H31.88a.908.908,0,0,0,.908-.908V7.834H37.1v34.7H21.473ZM56.813,36.98a.908.908,0,0,0-.97.133l-6.372,5.425H38.913V31.678h21.27v10.86H57.34V37.8a.908.908,0,0,0-.527-.825Z" transform="translate(0)"/>
        <path id="Path_367" data-name="Path 367" d="M350.747,110.727h8.367a.917.917,0,0,0,.643-.267l4.183-4.18a.908.908,0,0,0,.266-.642V97.283a.921.921,0,0,0-.908-.908h-8.368a.908.908,0,0,0-.642.266l-4.182,4.178a.919.919,0,0,0-.267.643v8.356a.908.908,0,0,0,.908.908Zm.908-8.356h6.551v6.54h-6.551Zm8.367,5.257v-5.789l2.368-2.366v5.788Zm-4.716-9.436h5.8l-2.366,2.364h-5.8Z" transform="translate(-307.472 -84.704)"/>
        <path id="Path_368" data-name="Path 368" d="M364.578,314.087H361.57a.908.908,0,0,0,0,1.816h3.009A.908.908,0,0,0,364.578,314.087Z" transform="translate(-317.011 -276.053)"/>
        <path id="Path_369" data-name="Path 369" d="M369.279,284.242h-7.71a.908.908,0,0,0,0,1.816h7.71A.908.908,0,0,0,369.279,284.242Z" transform="translate(-317.009 -249.822)"/>
        <path id="Path_370" data-name="Path 370" d="M342.876,383.737l-10.964,9.335a.915.915,0,0,0,.589,1.6h10.964a.908.908,0,0,0,.908-.908v-9.335A.917.917,0,0,0,342.876,383.737Zm-.319,9.118h-7.588l7.588-6.461Z" transform="translate(-291.442 -337.076)"/>
      </g>
      <g id="Group_39" data-name="Group 39" transform="translate(696 -546)">
        <path id="invoice" d="M62.48,47.7a15.554,15.554,0,1,0,23.7-13.244V14.964a1.182,1.182,0,0,0-.473-.945C70.985-.706,71.937.125,71.433.025,71.257-.01,73.117,0,36.685,0a4.746,4.746,0,0,0-4.74,4.74V66.368a4.746,4.746,0,0,0,4.74,4.74H81.423a4.746,4.746,0,0,0,4.74-4.74,1.185,1.185,0,0,0-2.37,0,2.373,2.373,0,0,1-2.37,2.37H36.685a2.373,2.373,0,0,1-2.37-2.37V4.742a2.373,2.373,0,0,1,2.37-2.37H70.016v9.036a4.746,4.746,0,0,0,4.74,4.74h9.055V33.261a15.477,15.477,0,0,0-6.222-1.106V23.7a3.559,3.559,0,0,0-3.555-3.555H44.111A3.559,3.559,0,0,0,40.555,23.7v15.11a3.559,3.559,0,0,0,3.555,3.555H59.665a1.185,1.185,0,1,0,0-2.37H54.332V32.444H65a1.185,1.185,0,0,0,1.185-1.185v-8.74h7.851A1.186,1.186,0,0,1,75.219,23.7v8.7A15.58,15.58,0,0,0,62.48,47.7ZM74.757,13.779a2.373,2.373,0,0,1-2.37-2.37V4.048l9.731,9.731H74.757Zm-30.646,8.74h7.851v7.555H42.925V23.7A1.186,1.186,0,0,1,44.111,22.519ZM51.962,40H44.111a1.186,1.186,0,0,1-1.185-1.185v-6.37h9.036Zm11.851-9.925H54.332V22.519h9.481ZM91.218,47.7A13.184,13.184,0,1,1,78.034,34.518,13.2,13.2,0,0,1,91.218,47.7ZM40.555,48.887A1.185,1.185,0,0,1,41.74,47.7H53.3a1.185,1.185,0,1,1,0,2.37H41.74A1.185,1.185,0,0,1,40.555,48.887Zm0,8.888A1.185,1.185,0,0,1,41.74,56.59H56.258a1.185,1.185,0,1,1,0,2.37H41.74A1.185,1.185,0,0,1,40.555,57.776Z" transform="translate(325.055 1145)"/>
        <text id="_" data-name="₹" transform="translate(398 1200)" font-size="18" font-family="SegoeUI-Bold, Segoe UI" font-weight="700"><tspan x="0" y="0">₹</tspan></text>
      </g>
    </g>
    <g id="home" transform="translate(1092.875 640.046)">
      <ellipse id="Ellipse_51" data-name="Ellipse 51" cx="1.5" cy="1" rx="1.5" ry="1" transform="translate(87.125 22.954)"/>
      <path id="Path_374" data-name="Path 374" d="M145.353,122.126h16.325a1.212,1.212,0,0,0,1.088-1.306V108.544l1.468,1.511a.968.968,0,0,0,1.535-.142,1.494,1.494,0,0,0-.118-1.842L154.224,96.315a.955.955,0,0,0-1.417,0L141.38,108.071a1.494,1.494,0,0,0-.118,1.842.968.968,0,0,0,1.535.142l1.468-1.511V120.82A1.212,1.212,0,0,0,145.353,122.126Zm1.088-15.821,7.074-7.278,7.074,7.278v13.208H154.6v-5.225a1.107,1.107,0,1,0-2.177,0v5.225h-5.986Z" transform="translate(-65.203 -84.917)"/>
      <path id="Path_375" data-name="Path 375" d="M87.469,61.778a1.148,1.148,0,0,0,1.688,0c7.5-8,21.469-25.986,21.469-37.987A24.622,24.622,0,0,0,107.4,11.648a1.154,1.154,0,0,0-1.607-.432,1.237,1.237,0,0,0-.418,1.661,22.13,22.13,0,0,1,2.9,10.914c0,12.28-16.064,31-19.964,35.369-3.9-4.364-19.964-23.089-19.964-35.369,0-11.58,9.143-21.363,19.964-21.363A18.648,18.648,0,0,1,98.485,5.5a1.152,1.152,0,0,0,1.619-.381,1.238,1.238,0,0,0-.369-1.674A20.937,20.937,0,0,0,88.313,0C75.8,0,66,11.259,66,23.791,66,35.779,79.95,53.756,87.469,61.778Z"/>
      <circle id="Ellipse_52" data-name="Ellipse 52" cx="1.5" cy="1.5" r="1.5" transform="translate(101.125 6.954)"/>
    </g>
  </g>
</svg>
